<svg xmlns="http://www.w3.org/2000/svg" width="512" height="512" viewBox="0 0 512 512">
  <rect width="512" height="512" rx="96" fill="#0e1116"/>
  <!-- libro abierto -->
  <g fill="none" stroke="#28d9a8" stroke-width="18" stroke-linejoin="round" stroke-linecap="round">
    <path d="M256 150 C 218 124, 168 120, 128 132 L 128 360 C 168 348, 218 352, 256 378 Z" fill="#13202a"/>
    <path d="M256 150 C 294 124, 344 120, 384 132 L 384 360 C 344 348, 294 352, 256 378 Z" fill="#13202a"/>
    <line x1="256" y1="150" x2="256" y2="378"/>
  </g>
  <!-- pin de ubicación -->
  <g transform="translate(330,300)">
    <path d="M0 -8 C 38 -8, 60 22, 36 58 L 0 104 L -36 58 C -60 22, -38 -8, 0 -8 Z" fill="#1ba3ff" stroke="#0e1116" stroke-width="8"/>
    <circle cx="0" cy="30" r="16" fill="#0e1116"/>
  </g>
</svg>
